<?xml version="1.0" encoding="UTF-8"?>
<svg id="Inscrito" xmlns="http://www.w3.org/2000/svg" viewBox="0 0 40 40">
  <defs>
    <style>
      .cls-1 {
        fill: none;
        stroke: #1d2c45;
        stroke-linecap: round;
        stroke-linejoin: round;
        stroke-width: 2px;
      }

      .cls-2 {
        fill: #1d2c45;
        stroke-width: 0px;
      }
    </style>
  </defs>
  <g>
    <path class="cls-2" d="M23.96,30.83c-1.28.63-2.76.4-3.78-.47l5.71-2.82c.07,1.34-.64,2.66-1.92,3.29Z"/>
    <path class="cls-2" d="M30.7,22.61v.02c.05.57-.24,1.11-.76,1.38l-15.05,7.44c-.51.25-1.13.16-1.55-.23h0c-.27-.26-.43-.62-.43-.99-.04-1.18-.27-4.05-1.75-7.03l-1-2.01c-1.72-3.47-.77-7.62,2.12-9.97l-.12-.24c-.43-.88-.07-1.95.81-2.38.88-.43,1.95-.07,2.38.81l.12.24c3.61-.89,7.46.82,9.17,4.28l1.31,2.65c1.46,2.67,3.39,4.41,4.25,5.11.29.24.47.57.51.93Z"/>
  </g>
  <path class="cls-1" d="M7.3,13.88c-1,2.53-.92,5.21.03,7.54"/>
  <path class="cls-1" d="M26.87,12.08c-1.3-2.38-3.41-4.04-5.81-4.82"/>
</svg>