<?xml version="1.0" encoding="UTF-8"?>
<svg id="Inscrito" xmlns="http://www.w3.org/2000/svg" viewBox="0 0 40 40">
  <defs>
    <style>
      .cls-1 {
        fill: #1d2c45;
        stroke-width: 0px;
      }
    </style>
  </defs>
  <path class="cls-1" d="M23.96,30.82c1.28-.63,2-1.95,1.92-3.29l-5.71,2.82c1.02.87,2.5,1.1,3.78.47Z"/>
  <path class="cls-1" d="M11.16,23.19c.3.61.55,1.22.75,1.8l12.11-12.11c-1.91-2.76-5.33-4.04-8.55-3.24l-.12-.25c-.43-.87-1.5-1.24-2.38-.8-.88.43-1.24,1.5-.81,2.38l.12.25c-2.89,2.34-3.84,6.49-2.12,9.96l1,2.01Z"/>
  <path class="cls-1" d="M30.2,21.67c-.86-.7-2.79-2.44-4.25-5.11l-.36-.73,4.57-4.57c.39-.39.39-1.03,0-1.42-.15-.16-.36-.25-.57-.27-.3-.06-.62.04-.85.27l-4.09,4.09-12.34,12.35-4.04,4.04c-.23.23-.33.55-.27.84.02.21.11.42.27.57.19.2.45.29.71.29s.51-.09.7-.29l3.1-3.09c.08.67.11,1.21.12,1.58.01.38.17.73.44.98h.01c.41.4,1.04.49,1.55.24l15.05-7.44c.51-.26.81-.81.76-1.38v-.02c-.04-.36-.22-.69-.51-.93Z"/>
</svg>