<?xml version="1.0" encoding="UTF-8"?>
<svg id="Inscrito" xmlns="http://www.w3.org/2000/svg" viewBox="0 0 40 40">
  <defs>
    <style>
      .cls-1 {
        fill: #1d2c45;
        stroke-width: 0px;
      }
    </style>
  </defs>
  <g>
    <path class="cls-1" d="M23.96,30.83c-1.28.63-2.76.4-3.78-.47l5.71-2.82c.07,1.34-.64,2.66-1.92,3.29Z"/>
    <path class="cls-1" d="M30.7,22.61v.02c.05.57-.25,1.11-.76,1.38l-15.05,7.43c-.51.26-1.14.17-1.55-.22h-.01c-.27-.26-.43-.62-.44-.99-.03-1.18-.27-4.05-1.74-7.03l-1-2.01c-1.72-3.47-.77-7.62,2.12-9.97l-.12-.24c-.43-.88-.07-1.95.81-2.39.88-.43,1.95-.07,2.38.81l.12.25c.58-.15,1.16-.22,1.74-.23-.45.87-.7,1.86-.7,2.91,0,3.53,2.86,6.39,6.39,6.39,1.36,0,2.62-.43,3.65-1.15,1.35,2.11,2.9,3.5,3.65,4.11.29.23.47.57.51.93Z"/>
  </g>
  <path class="cls-1" d="M27.66,12.33c0,1.57-.76,2.96-1.93,3.82-.79.6-1.78.95-2.84.95-2.63,0-4.77-2.14-4.77-4.77,0-1.03.33-1.97.88-2.75.86-1.22,2.28-2.02,3.89-2.02,2.63,0,4.77,2.13,4.77,4.77Z"/>
</svg>